<svg width="64" height="64" viewBox="0 0 64 64" fill="none" xmlns="http://www.w3.org/2000/svg">
<path d="M53.0666 8.24296C52.7388 6.83403 52.1278 5.50652 51.2707 4.34115C50.4137 3.17577 49.3286 2.1969 48.0814 1.46405C46.8342 0.731195 45.451 0.259684 44.0159 0.0781873C42.5807 -0.103309 41.1237 0.00900106 39.7333 0.408289L35.136 1.72296C33.9714 2.05768 32.8987 2.65421 32 3.46696C31.1012 2.65421 30.0286 2.05768 28.864 1.72296L24.2666 0.408289C22.8771 0.0110821 21.4214 -0.0996273 19.9878 0.0828804C18.5542 0.265388 17.1727 0.737306 15.927 1.46999C14.6813 2.20268 13.5975 3.18084 12.7414 4.34512C11.8853 5.5094 11.2747 6.83551 10.9466 8.24296C7.87943 8.80099 5.10474 10.4162 3.10486 12.8077C1.10498 15.1993 0.00635878 18.2161 -3.05176e-05 21.3336L-3.05176e-05 40.0003C0.00420377 43.5352 1.41032 46.9241 3.90989 49.4237C6.40946 51.9233 9.79838 53.3294 13.3333 53.3336H29.3333V58.667H21.3333C20.6261 58.667 19.9478 58.9479 19.4477 59.448C18.9476 59.9481 18.6666 60.6264 18.6666 61.3336C18.6666 62.0409 18.9476 62.7191 19.4477 63.2192C19.9478 63.7193 20.6261 64.0003 21.3333 64.0003H42.6666C43.3739 64.0003 44.0522 63.7193 44.5523 63.2192C45.0524 62.7191 45.3333 62.0409 45.3333 61.3336C45.3333 60.6264 45.0524 59.9481 44.5523 59.448C44.0522 58.9479 43.3739 58.667 42.6666 58.667H34.6666V53.3336H50.6666C54.2016 53.3294 57.5905 51.9233 60.0901 49.4237C62.5896 46.9241 63.9957 43.5352 64 40.0003V21.3336C63.9942 18.218 62.8974 15.2028 60.9002 12.8115C58.903 10.4201 56.1314 8.80377 53.0666 8.24296V8.24296ZM34.6666 9.41629C34.6669 8.83713 34.8557 8.2738 35.2045 7.81145C35.5533 7.34911 36.0431 7.01289 36.6 6.85362L41.2 5.53896C41.9938 5.3119 42.8295 5.27225 43.6412 5.42313C44.453 5.57401 45.2186 5.91129 45.8778 6.40842C46.5371 6.90555 47.0719 7.54894 47.4401 8.28793C47.8084 9.02691 48 9.8413 48 10.667V21.1683C47.9963 22.3255 47.6174 23.4503 46.9202 24.3739C46.2231 25.2976 45.2452 25.9702 44.1333 26.291L34.6666 28.995V9.41629ZM18.1333 6.40029C18.7912 5.90497 19.5553 5.56932 20.3652 5.41985C21.175 5.27037 22.0086 5.31114 22.8 5.53896L27.4 6.85362C27.9568 7.01289 28.4466 7.34911 28.7954 7.81145C29.1442 8.2738 29.333 8.83713 29.3333 9.41629V28.995L19.8666 26.291C18.7548 25.9702 17.7769 25.2976 17.0797 24.3739C16.3825 23.4503 16.0037 22.3255 16 21.1683V10.667C15.9973 9.83851 16.1888 9.02096 16.5593 8.27997C16.9298 7.53898 17.4689 6.89519 18.1333 6.40029V6.40029ZM58.6666 40.0003C58.6666 42.122 57.8238 44.1569 56.3235 45.6571C54.8232 47.1574 52.7884 48.0003 50.6666 48.0003H13.3333C11.2116 48.0003 9.17674 47.1574 7.67645 45.6571C6.17616 44.1569 5.3333 42.122 5.3333 40.0003V21.3336C5.34014 19.6849 5.85619 18.0786 6.81087 16.7344C7.76555 15.3902 9.11221 14.3738 10.6666 13.8243V21.1683C10.6732 23.4839 11.4304 25.7349 12.8248 27.5836C14.2191 29.4323 16.1753 30.779 18.4 31.4216L27.6026 34.0536C30.4787 34.8734 33.5266 34.8734 36.4026 34.0536L45.6053 31.4216C47.8289 30.778 49.784 29.4309 51.1773 27.5823C52.5706 25.7337 53.3271 23.4832 53.3333 21.1683V13.8243C54.8877 14.3738 56.2344 15.3902 57.1891 16.7344C58.1437 18.0786 58.6598 19.6849 58.6666 21.3336V40.0003Z" fill="#D0BCFF"/>
</svg>
